<?xml version="1.0" encoding="utf-8"?>
<!-- Generator: Adobe Illustrator 23.0.2, SVG Export Plug-In . SVG Version: 6.00 Build 0)  -->
<svg version="1.1" id="图层_1" xmlns="http://www.w3.org/2000/svg" xmlns:xlink="http://www.w3.org/1999/xlink" x="0px" y="0px"
	 viewBox="0 0 505.29 478.5" style="enable-background:new 0 0 505.29 478.5;" xml:space="preserve">
<style type="text/css">
	.st0{fill:#BF3730;}
	.st1{fill:none;}
</style>
<g>
	<path class="st0" d="M13.09,438.77c-1.87,4.24,0.47,13.24,0.68,13.73c3.6,8.34,8.78,13.74,18.04,16.21
		c4.09,1.09,8.66,0.82,12.97,0.52c3.1-0.22,6.48-0.92,9.09-2.48c3.88-2.33,7.5-5.3,10.68-8.54c13.59-13.85,23.93-30.08,33.63-46.75
		c3.32-5.71,6.53-11.47,10.27-18.05c5.97,4.07,11.59,7.75,17.04,11.67c4.03,2.9,11.92,1.06,13.25-3.76
		c1.96-7.12,2.09-13.85-5.85-18.7c-2.51-1.54-5.2-3.17-6.94-5.42c-1.01-1.31-1-4.31-0.18-5.9c1.52-2.95,3.97-5.42,6.65-8.9
		c3.32,2.4,7.08,4.87,10.54,7.71c1.99,1.63,3.41,3.94,5.21,5.82c9.83,10.27,21.42,18.32,33.8,25.05
		c14.32,7.79,29.9,12.58,45.61,16.79c13.15,3.52,26.39,5.99,40.14,5.96c12.57-0.02,25.02-0.8,37.3-3.24
		c11.08-2.2,22.11-4.56,32.27-10.08c10.51-5.72,21.53-10.51,32.05-16.22c4.34-2.36,7.62-1.61,11.05,1.03
		c4.79,3.69,9.67,7.3,14.26,11.24c13.26,11.36,26.27,23,39.63,34.24c7.73,6.51,15.88,12.54,23.96,18.62
		c3.05,2.29,6.65,2.27,10.29,1.26c8.6-2.37,15.2-7.54,20.37-14.61c6.84-9.35,5.93-22.39-2.35-30.3
		c-7.81-7.46-15.89-14.64-23.99-21.79c-7.23-6.39-14.71-12.5-21.97-18.84c-9.22-8.05-18.35-16.22-27.33-24.18
		c5.27-9.58,9.91-18.4,14.9-27.02c13.96-24.08,19.2-50.25,19.04-77.77c-0.06-10.37,0.44-20.77-0.14-31.11
		c-0.52-9.2-1.7-18.42-3.43-27.48c-3.38-17.67-10.13-34.15-18.48-50.06c-9.91-18.87-22.62-35.69-37.07-51.21
		c-10.59-11.37-22.44-21.39-35-30.56c-17.7-12.92-36.74-23.41-57.3-31.05c-14.12-5.25-28.7-8.78-43.61-10.78
		c-6.2-0.83-12.51-0.75-18.78-1.09c2.6,3.21,5.24,5.76,8.18,7.92c12.51,9.19,25.31,18.01,37.62,27.46
		c10.39,7.97,20.68,16.18,30.27,25.08c12.02,11.14,23.95,22.51,34.68,34.86c12.15,13.99,21.46,30.03,28.46,47.32
		c7.01,17.31,11.26,35.29,10.98,53.92c-0.21,13.67-2.12,27.32-3.56,40.95c-1.39,13.23-4.23,26.2-9,38.64
		c-1.49,3.88-3.42,7.66-5.67,11.15c-2.64,4.1-6.04,4.3-9.7,1.22c-1.7-1.43-3.55-2.66-5.26-4.07c-10.5-8.64-21.01-17.27-31.47-25.97
		c-6.85-5.7-13.6-11.52-20.42-17.26c-9.09-7.66-18.22-15.26-27.28-22.94c-5.95-5.05-11.79-10.22-17.72-15.29
		c-7.99-6.84-16.07-13.57-24.02-20.46c-6.95-6.02-13.76-12.19-20.63-18.31c-8.61-7.67-17.21-15.35-26.09-23.28
		c17.14-20.76,33.92-41.08,51.11-61.9c-10.98-1.06-21.26-2.09-31.55-3.04c-6.28-0.58-12.58-0.97-18.86-1.58
		c-9.34-0.91-18.66-1.95-27.99-2.93c-6.99-0.73-13.97-1.54-20.97-2.13c-1.78-0.15-3.47-0.64-5.19,1.56
		c-8.91,11.39-18.06,22.61-27.39,33.67c-6.48,7.68-13.4,14.99-20.07,22.52c-9.14,10.3-18.29,20.59-27.31,31
		c-4.54,5.24-8.87,10.67-13.08,16.16c-0.66,0.86-0.81,3.06-0.19,3.79c3.44,4.08,6.92,8.21,10.89,11.76
		c10.89,9.72,21.97,19.23,33.09,28.68c6.17,5.25,12.57,10.23,19.01,15.46c14.58-17.23,28.87-34.12,43.21-51.06
		c17.62,11.69,32.74,25.93,48.27,39.67c9.86,8.72,19.41,17.8,29.45,26.3c13.66,11.58,27.9,22.48,41.44,34.19
		c14.09,12.19,27.75,24.88,41.34,37.63c3.6,3.38,6.26,7.77,9.23,11.53c-6.43,2.85-12.15,5.4-17.88,7.92
		c-5.63,2.48-11.18,5.22-16.94,7.34c-7.84,2.89-16.04,3.93-24.41,3.82c-10.56-0.14-21.25,0.89-31.67-0.34
		c-15.83-1.88-30.15-8.54-43.57-17.12c-12.56-8.03-24.21-17.15-34.65-27.83c-1.21-1.24-3.15-2.69-4.63-2.57
		c-10.55,0.89-19.89,4.65-26.83,13.02c-4.49,5.41-8.76,11.01-13.09,16.55c-3.7,4.74-7.91,5.27-11.29,1.86
		c-1.48-1.49-3.09-2.91-4.82-4.09c-3.13-2.14-6.2-4.54-9.65-5.99c-4.65-1.96-11.21,1.1-11.82,5.32c-0.84,5.81-0.26,11.56,4.34,15.86
		c2.31,2.16,5.14,3.78,7.83,5.5c2.64,1.7,2.72,5.48,0.28,7.31c-8.87,6.65-18.29,12.74-26.34,20.28
		C37.09,405.73,22.12,419.85,13.09,438.77z"/>
	<path class="st1" d="M13.09,438.77c9.03-18.92,24.01-33.04,38.92-47c8.05-7.54,17.47-13.63,26.34-20.28
		c2.44-1.83,2.36-5.62-0.28-7.31c-2.68-1.72-5.52-3.34-7.83-5.5c-4.6-4.3-5.18-10.05-4.34-15.86c0.61-4.22,7.17-7.28,11.82-5.32
		c3.45,1.45,6.52,3.85,9.65,5.99c1.73,1.19,3.34,2.6,4.82,4.09c3.38,3.4,7.59,2.87,11.29-1.86c4.33-5.54,8.6-11.14,13.09-16.55
		c6.94-8.36,16.28-12.13,26.83-13.02c1.48-0.12,3.42,1.33,4.63,2.57c10.44,10.67,22.08,19.8,34.65,27.83
		c13.42,8.58,27.75,15.24,43.57,17.12c10.42,1.24,21.1,0.21,31.67,0.34c8.37,0.11,16.58-0.94,24.41-3.82
		c5.77-2.12,11.31-4.86,16.94-7.34c5.73-2.52,11.45-5.07,17.88-7.92c-2.97-3.77-5.63-8.15-9.23-11.53
		c-13.59-12.75-27.25-25.44-41.34-37.63c-13.54-11.72-27.78-22.61-41.44-34.19c-10.04-8.51-19.59-17.58-29.45-26.3
		c-15.53-13.74-30.66-27.98-48.27-39.67c-14.33,16.94-28.63,33.83-43.21,51.06c-6.45-5.23-12.84-10.21-19.01-15.46
		c-11.12-9.46-22.2-18.96-33.09-28.68c-3.97-3.55-7.45-7.67-10.89-11.76c-0.62-0.73-0.47-2.93,0.19-3.79
		c4.22-5.5,8.55-10.93,13.08-16.16c9.02-10.41,18.17-20.69,27.31-31c6.67-7.52,13.59-14.83,20.07-22.52
		c9.32-11.06,18.47-22.28,27.39-33.67c1.72-2.19,3.41-1.71,5.19-1.56c7,0.59,13.98,1.4,20.97,2.13c9.33,0.98,18.65,2.01,27.99,2.93
		c6.28,0.61,12.58,1,18.86,1.58c10.29,0.95,20.58,1.98,31.55,3.04c-17.19,20.82-33.96,41.14-51.11,61.9
		c8.89,7.93,17.49,15.61,26.09,23.28c6.87,6.12,13.68,12.29,20.63,18.31c7.95,6.89,16.02,13.63,24.02,20.46
		c5.93,5.07,11.77,10.24,17.72,15.29c9.06,7.68,18.19,15.29,27.28,22.94c6.82,5.74,13.57,11.56,20.42,17.26
		c10.46,8.7,20.96,17.33,31.47,25.97c1.71,1.41,3.57,2.64,5.26,4.07c3.66,3.07,7.06,2.88,9.7-1.22c2.25-3.49,4.18-7.27,5.67-11.15
		c4.78-12.45,7.61-25.41,9-38.64c1.44-13.63,3.35-27.28,3.56-40.95c0.28-18.62-3.96-36.61-10.98-53.92
		c-7-17.29-16.31-33.33-28.46-47.32c-10.73-12.35-22.67-23.72-34.68-34.86c-9.6-8.9-19.88-17.1-30.27-25.08
		c-12.32-9.45-25.11-18.27-37.62-27.46c-2.93-2.16-5.58-4.71-8.18-7.92c6.26,0.34,12.58,0.26,18.78,1.09
		c14.91,2,29.48,5.53,43.61,10.78c20.56,7.65,39.6,18.13,57.3,31.05c12.55,9.16,24.41,19.18,35,30.56
		c14.45,15.52,27.16,32.34,37.07,51.21c8.35,15.91,15.1,32.4,18.48,50.06c1.73,9.05,2.91,18.28,3.43,27.48
		c0.58,10.34,0.08,20.74,0.14,31.11c0.16,27.52-5.08,53.69-19.04,77.77c-4.99,8.62-9.63,17.44-14.9,27.02
		c8.98,7.96,18.11,16.13,27.33,24.18c7.27,6.35,14.74,12.46,21.97,18.84c8.1,7.15,16.18,14.33,23.99,21.79
		c8.28,7.91,9.19,20.95,2.35,30.3c-5.17,7.07-11.76,12.25-20.37,14.61c-3.64,1-7.24,1.03-10.29-1.26
		c-8.09-6.07-16.23-12.11-23.96-18.62c-13.35-11.24-26.37-22.89-39.63-34.24c-4.59-3.93-9.46-7.54-14.26-11.24
		c-3.43-2.64-6.71-3.39-11.05-1.03c-10.52,5.71-21.54,10.5-32.05,16.22c-10.15,5.52-21.19,7.89-32.27,10.08
		c-12.28,2.43-24.73,3.22-37.3,3.24c-13.75,0.02-26.99-2.44-40.14-5.96c-15.71-4.21-31.29-9-45.61-16.79
		c-12.37-6.73-23.96-14.78-33.8-25.05c-1.8-1.88-3.22-4.19-5.21-5.82c-3.45-2.84-7.22-5.31-10.54-7.71
		c-2.68,3.47-5.13,5.95-6.65,8.9c-0.82,1.59-0.83,4.6,0.18,5.9c1.74,2.26,4.43,3.89,6.94,5.42c7.94,4.86,7.81,11.58,5.85,18.7
		c-1.33,4.82-9.22,6.66-13.25,3.76c-5.45-3.92-11.07-7.6-17.04-11.67c-3.74,6.57-6.95,12.34-10.27,18.05
		c-9.7,16.67-20.04,32.91-33.63,46.75c-3.18,3.24-6.8,6.21-10.68,8.54c-2.61,1.56-5.99,2.26-9.09,2.48
		c-4.31,0.3-8.88,0.57-12.97-0.52c-9.26-2.47-14.17-9.77-17.77-18.1c-0.21-0.49-0.62-0.89-0.94-1.34
		C13.09,445.77,13.09,442.27,13.09,438.77z"/>
</g>
</svg>
